<svg width="97" height="540" fill="none" xmlns="http://www.w3.org/2000/svg"><path opacity=".06" d="M93.723 540H3.277v-14.47h37.358L3.277 493.301v-18.417l39.98 35.518 49.81-40.122v19.074L47.19 524.872h45.879V540h.655zm0-147.333l-23.595 9.866v35.518l23.595 10.524v15.786L0 420.95l93.723-44.068v15.785zm-66.196 27.625c1.31.658 3.277 1.316 5.243 1.974 1.966.657 3.277 1.315 5.243 1.973l20.318 9.208v-24.994l-20.318 9.208c-1.31.658-2.621 1.316-3.932 1.316-1.31.658-2.622.658-3.932 1.315h-2.622zm25.56-71.693h39.98v13.813H3.278V336.76c0-3.289.655-6.577 1.31-9.866.656-3.289 2.622-5.92 5.244-8.551 1.966-1.973 4.588-3.946 7.21-5.261 2.621-1.316 5.243-1.974 8.52-1.974h2.621c7.21 0 13.109 1.974 17.041 5.262 3.932 3.289 6.554 8.551 7.21 15.786l41.29-30.914v16.444l-39.98 30.256v.657h-.655zm-36.702-.657h25.56v-7.236c0-3.288-1.31-7.235-2.62-9.866-1.312-3.288-4.589-4.604-9.176-4.604h-.656c-5.898 0-9.83 1.973-11.142 5.92-1.31 3.946-1.966 8.55-1.966 13.155v2.631zm77.338-61.827H3.277v-14.471h89.79v14.471h.656zm0-96.687l-23.595 9.866v35.517l23.595 10.524v15.786L0 217.71l93.723-44.068v15.786zm-66.196 27.624c1.31.658 3.277 1.316 5.243 1.316 1.966.658 3.277 1.315 5.243 1.973l20.318 9.208v-24.994l-20.318 9.209c-1.31.657-2.621 1.315-3.932 1.315-1.31.658-2.622.658-3.932 1.316h-.656c-1.31.657-1.966.657-1.966.657zm66.196-58.538H0l55.054-57.223 1.31-1.315c0-.658.656-.658 1.312-1.316l1.966-1.973 1.966-1.973 1.966-1.974c.656-.657 1.311-1.315 2.622-1.973H3.277V77.613H97L41.29 136.15c-1.31 1.973-3.276 3.289-4.587 4.604-1.967 1.316-3.933 3.289-5.899 4.604h62.919v13.155zM16.385 24.336h77.338v14.47H16.385v23.679H3.277V0H15.73v24.336h.655z" fill="#000"/></svg>