<svg width="134" height="32" fill="none" xmlns="http://www.w3.org/2000/svg"><path fill-rule="evenodd" clip-rule="evenodd" d="M31.338 31.458h66.265v-1.29H31.338v1.29z" fill="#282727"/><path d="M0 23.069V.807h3.59v9.195L11.589.807h4.57l-8.813 9.84 9.956 12.26h-4.733L3.754 11.616v11.293H0v.16zm36.56 0l-2.448-5.808h-8.814l-2.611 5.808H18.77L29.542 0l10.935 23.069H36.56zM29.705 6.775c-.163.323-.326.807-.49 1.291-.163.484-.326.807-.49 1.29l-2.284 5.002h6.202l-2.285-5.001c-.163-.323-.326-.646-.326-.968-.163-.323-.163-.646-.327-.968v-.646zm17.79 6.292v9.84h-3.427V.808h6.366c.816 0 1.632.16 2.448.322.816.162 1.469.646 2.122 1.29.49.485.979 1.13 1.305 1.775.327.646.49 1.29.49 2.098v.645c0 1.774-.49 3.226-1.306 4.194-.816.968-2.122 1.613-3.917 1.775l7.671 10.163h-4.08l-7.508-9.84h-.163v-.162zm.164-9.034v6.292h1.795c.816 0 1.796-.323 2.449-.646.816-.322 1.142-1.129 1.142-2.258v-.162c0-1.451-.49-2.42-1.469-2.742-.98-.323-2.122-.484-3.264-.484h-.653zm15.342 19.036V.807h3.591v22.1h-3.59v.162zm23.993 0l-2.448-5.808h-8.814l-2.611 5.808h-3.918L79.976 0 90.91 23.069h-3.917zM80.139 6.775c-.163.323-.327.807-.327 1.291-.163.484-.326.807-.49 1.29l-2.284 5.002h6.202l-2.285-5.001c-.163-.323-.326-.646-.326-.968-.164-.323-.164-.646-.327-.968v-.162c-.163-.322-.163-.484-.163-.484zM94.665 23.07V0l14.2 13.551.326.323c.163 0 .163.16.327.322a2220.141 2220.141 0 00.979.968l.49.484c.163.161.326.323.489.645V.807h3.265v23.068l-14.527-13.712c-.49-.322-.816-.806-1.142-1.129-.327-.484-.816-.968-1.143-1.452V23.07h-3.264zm33.296-19.036V23.07h-3.591V4.033h-5.875V.807H134v3.065h-6.039v.161z" fill="#282727"/></svg>