<svg viewBox="0 0 109 125" xmlns="http://www.w3.org/2000/svg"><path d="M3.53 112.11c1.95 0 3.53-1.583 3.53-3.536V14.142c0-3.906 3.161-7.073 7.06-7.073h77.71c1.95 0 3.53-1.583 3.53-3.536S93.78-.003 91.83-.003H14.12C6.322-.003 0 6.33 0 14.142v94.432a3.533 3.533 0 0 0 3.53 3.536z" clip-rule="evenodd" fill="#EDEFF3" fill-rule="evenodd"/><path d="M97.621 117.92H27.379a3.542 3.542 0 0 1-3.542-3.541V27.376a3.541 3.541 0 0 1 3.542-3.54h70.242a3.542 3.542 0 0 1 3.542 3.54v87.003a3.542 3.542 0 0 1-3.542 3.541zm-70.242 7.081c-5.869 0-10.627-4.756-10.627-10.622V27.376c0-5.866 4.758-10.622 10.627-10.622h70.242c5.87 0 10.626 4.756 10.626 10.622v87.003c0 5.866-4.757 10.622-10.626 10.622H27.379z" clip-rule="evenodd" fill="#EDEFF3" fill-rule="evenodd"/><path d="M90.206 90.206H34.794v6.443h55.412v-6.443zm0-23.196H34.794v7.732h55.412V67.01zm0-21.907H34.794v6.443h55.412v-6.443z" clip-rule="evenodd" fill="#EDEFF3" fill-rule="evenodd"/></svg>