<svg width="20" height="16" viewBox="0 0 20 16" fill="none" xmlns="http://www.w3.org/2000/svg">
<path d="M19.9429 7.73359L17.8 2.63131C17.7453 2.49957 17.6539 2.38716 17.537 2.30809C17.4201 2.22903 17.2831 2.18681 17.1429 2.18669H15V0.728896C15 0.535581 14.9247 0.350183 14.7908 0.213489C14.6568 0.0767943 14.4752 0 14.2857 0H0.714286C0.524845 0 0.343164 0.0767943 0.209209 0.213489C0.0752549 0.350183 0 0.535581 0 0.728896V13.1201C0 13.3134 0.0752549 13.4988 0.209209 13.6355C0.343164 13.7722 0.524845 13.849 0.714286 13.849H2.24286C2.40734 14.4667 2.76643 15.0119 3.26471 15.4007C3.76299 15.7894 4.37278 16 5 16C5.62722 16 6.23701 15.7894 6.73529 15.4007C7.23357 15.0119 7.59266 14.4667 7.75714 13.849H12.2429C12.4073 14.4667 12.7664 15.0119 13.2647 15.4007C13.763 15.7894 14.3728 16 15 16C15.6272 16 16.237 15.7894 16.7353 15.4007C17.2336 15.0119 17.5927 14.4667 17.7571 13.849H19.2857C19.4752 13.849 19.6568 13.7722 19.7908 13.6355C19.9247 13.4988 20 13.3134 20 13.1201V8.01786C19.9998 7.92015 19.9804 7.82348 19.9429 7.73359ZM15 3.64448H16.6714L18.2 7.28896H15V3.64448ZM5 14.5779C4.71746 14.5779 4.44126 14.4924 4.20633 14.3322C3.9714 14.1721 3.7883 13.9444 3.68017 13.678C3.57205 13.4116 3.54376 13.1185 3.59888 12.8357C3.654 12.5529 3.79006 12.2932 3.98985 12.0893C4.18964 11.8854 4.44418 11.7466 4.7213 11.6903C4.99842 11.6341 5.28565 11.663 5.54669 11.7733C5.80773 11.8836 6.03084 12.0705 6.18781 12.3102C6.34479 12.55 6.42857 12.8318 6.42857 13.1201C6.42857 13.5068 6.27806 13.8776 6.01015 14.1509C5.74224 14.4243 5.37888 14.5779 5 14.5779ZM12.2429 12.3912H7.75714C7.59266 11.7736 7.23357 11.2283 6.73529 10.8396C6.23701 10.4509 5.62722 10.2403 5 10.2403C4.37278 10.2403 3.76299 10.4509 3.26471 10.8396C2.76643 11.2283 2.40734 11.7736 2.24286 12.3912H1.42857V1.45779H13.5714V10.6127C13.2462 10.8054 12.9614 11.0616 12.7334 11.3668C12.5054 11.672 12.3387 12.0201 12.2429 12.3912ZM15 14.5779C14.7175 14.5779 14.4413 14.4924 14.2063 14.3322C13.9714 14.1721 13.7883 13.9444 13.6802 13.678C13.572 13.4116 13.5438 13.1185 13.5989 12.8357C13.654 12.5529 13.7901 12.2932 13.9898 12.0893C14.1896 11.8854 14.4442 11.7466 14.7213 11.6903C14.9984 11.6341 15.2857 11.663 15.5467 11.7733C15.8077 11.8836 16.0308 12.0705 16.1878 12.3102C16.3448 12.55 16.4286 12.8318 16.4286 13.1201C16.4286 13.5068 16.2781 13.8776 16.0102 14.1509C15.7422 14.4243 15.3789 14.5779 15 14.5779ZM18.5714 12.3912H17.7571C17.5992 11.767 17.2429 11.2137 16.744 10.818C16.2452 10.4224 15.6318 10.2066 15 10.2045V8.74675H18.5714V12.3912Z" fill="#282727"/>
</svg>
