<svg width="24" height="24" viewBox="0 0 24 24" fill="none" xmlns="http://www.w3.org/2000/svg">
<path fill-rule="evenodd" clip-rule="evenodd" d="M8.93649 8.33398C9.00865 6.68959 9.36967 5.16438 9.93959 4.03241C10.5939 2.73282 11.3719 2.22227 12 2.22227C12.6281 2.22227 13.4061 2.73282 14.0604 4.03241C14.6303 5.16438 14.9913 6.68959 15.0635 8.33398H8.93649ZM8.83878 3.48579C8.16933 4.81547 7.77729 6.53622 7.70469 8.33398H4V23.0012H19.9996V8.33398H16.2953C16.2227 6.53622 15.8306 4.81547 15.1612 3.48579C14.4306 2.03474 13.3303 1 12 1C10.6696 1 9.56933 2.03474 8.83878 3.48579Z" fill="#282727"/>
</svg>
