<svg width="24" height="24" viewBox="0 0 24 24" fill="none" xmlns="http://www.w3.org/2000/svg">
<path fill-rule="evenodd" clip-rule="evenodd" d="M9.93959 4.03241C9.36967 5.16438 9.00865 6.68959 8.93649 8.33398H15.0635C14.9913 6.68959 14.6303 5.16438 14.0604 4.03241C13.4061 2.73282 12.6281 2.22227 12 2.22227C11.3719 2.22227 10.5939 2.73282 9.93959 4.03241ZM7.70469 8.33398C7.77729 6.53622 8.16933 4.81547 8.83878 3.48579C9.56933 2.03474 10.6696 1 12 1C13.3303 1 14.4306 2.03474 15.1612 3.48579C15.8306 4.81547 16.2227 6.53622 16.2953 8.33398H19.9996V23.0012H4V8.33398H7.70469ZM5.23074 21.7789H18.7689V9.55625H5.23074V21.7789Z" fill="#282727"/>
</svg>
