<svg width="24" height="24" viewBox="0 0 24 24" fill="none" xmlns="http://www.w3.org/2000/svg">
<path d="M21.9429 11.7336L19.8 6.63131C19.7453 6.49957 19.6539 6.38716 19.537 6.30809C19.4201 6.22903 19.2831 6.18681 19.1429 6.18669H17V4.7289C17 4.53558 16.9247 4.35018 16.7908 4.21349C16.6568 4.07679 16.4752 4 16.2857 4H2.71429C2.52485 4 2.34316 4.07679 2.20921 4.21349C2.07525 4.35018 2 4.53558 2 4.7289V17.1201C2 17.3134 2.07525 17.4988 2.20921 17.6355C2.34316 17.7722 2.52485 17.849 2.71429 17.849H4.24286C4.40734 18.4667 4.76643 19.0119 5.26471 19.4007C5.76299 19.7894 6.37278 20 7 20C7.62722 20 8.23701 19.7894 8.73529 19.4007C9.23357 19.0119 9.59266 18.4667 9.75714 17.849H14.2429C14.4073 18.4667 14.7664 19.0119 15.2647 19.4007C15.763 19.7894 16.3728 20 17 20C17.6272 20 18.237 19.7894 18.7353 19.4007C19.2336 19.0119 19.5927 18.4667 19.7571 17.849H21.2857C21.4752 17.849 21.6568 17.7722 21.7908 17.6355C21.9247 17.4988 22 17.3134 22 17.1201V12.0179C21.9998 11.9202 21.9804 11.8235 21.9429 11.7336ZM17 7.64448H18.6714L20.2 11.289H17V7.64448ZM7 18.5779C6.71746 18.5779 6.44126 18.4924 6.20633 18.3322C5.9714 18.1721 5.7883 17.9444 5.68017 17.678C5.57205 17.4116 5.54376 17.1185 5.59888 16.8357C5.654 16.5529 5.79006 16.2932 5.98985 16.0893C6.18964 15.8854 6.44418 15.7466 6.7213 15.6903C6.99842 15.6341 7.28565 15.663 7.54669 15.7733C7.80773 15.8836 8.03084 16.0705 8.18781 16.3102C8.34479 16.55 8.42857 16.8318 8.42857 17.1201C8.42857 17.5068 8.27806 17.8776 8.01015 18.1509C7.74224 18.4243 7.37888 18.5779 7 18.5779ZM14.2429 16.3912H9.75714C9.59266 15.7736 9.23357 15.2283 8.73529 14.8396C8.23701 14.4509 7.62722 14.2403 7 14.2403C6.37278 14.2403 5.76299 14.4509 5.26471 14.8396C4.76643 15.2283 4.40734 15.7736 4.24286 16.3912H3.42857V5.45779H15.5714V14.6127C15.2462 14.8054 14.9614 15.0616 14.7334 15.3668C14.5054 15.672 14.3387 16.0201 14.2429 16.3912ZM17 18.5779C16.7175 18.5779 16.4413 18.4924 16.2063 18.3322C15.9714 18.1721 15.7883 17.9444 15.6802 17.678C15.572 17.4116 15.5438 17.1185 15.5989 16.8357C15.654 16.5529 15.7901 16.2932 15.9898 16.0893C16.1896 15.8854 16.4442 15.7466 16.7213 15.6903C16.9984 15.6341 17.2857 15.663 17.5467 15.7733C17.8077 15.8836 18.0308 16.0705 18.1878 16.3102C18.3448 16.55 18.4286 16.8318 18.4286 17.1201C18.4286 17.5068 18.2781 17.8776 18.0102 18.1509C17.7422 18.4243 17.3789 18.5779 17 18.5779ZM20.5714 16.3912H19.7571C19.5992 15.767 19.2429 15.2137 18.744 14.818C18.2452 14.4224 17.6318 14.2066 17 14.2045V12.7468H20.5714V16.3912Z" fill="#282727"/>
</svg>
