<svg width="24" height="24" viewBox="0 0 24 24" fill="none" xmlns="http://www.w3.org/2000/svg">
<path fill-rule="evenodd" clip-rule="evenodd" d="M13.0555 5.35294H22V4.23529H13.0555C12.7982 2.95992 11.6772 2 10.3333 2C8.79921 2 7.55556 3.25097 7.55556 4.79412V4.23529H2V5.35294H7.55556V4.79412C7.55556 6.33727 8.79921 7.58824 10.3333 7.58824C11.6772 7.58824 12.7982 6.62831 13.0555 5.35294ZM10.3333 6.47059C11.2538 6.47059 12 5.72001 12 4.79412C12 3.86823 11.2538 3.11765 10.3333 3.11765C9.41286 3.11765 8.66667 3.86823 8.66667 4.79412C8.66667 5.72001 9.41286 6.47059 10.3333 6.47059Z" fill="#282727"/>
<path fill-rule="evenodd" clip-rule="evenodd" d="M4.27779 18.7647C4.53516 20.0401 5.65613 21 7 21C8.34387 21 9.46484 20.0401 9.72221 18.7647H22V17.6471H9.72221C9.46484 16.3717 8.34387 15.4118 7 15.4118C5.65613 15.4118 4.53516 16.3717 4.27779 17.6471H2V18.7647H4.27779ZM7 19.8824C7.92048 19.8824 8.66667 19.1318 8.66667 18.2059C8.66667 17.28 7.92048 16.5294 7 16.5294C6.07953 16.5294 5.33333 17.28 5.33333 18.2059C5.33333 19.1318 6.07953 19.8824 7 19.8824Z" fill="#282727"/>
<path fill-rule="evenodd" clip-rule="evenodd" d="M19.7222 10.9412C19.4648 9.66581 18.3439 8.70588 17 8.70588C15.6561 8.70588 14.5352 9.66581 14.2778 10.9412H2V12.0588H14.2778C14.5352 13.3342 15.6561 14.2941 17 14.2941C18.3439 14.2941 19.4648 13.3342 19.7222 12.0588H22V10.9412H19.7222ZM17 13.1765C17.9205 13.1765 18.6667 12.4259 18.6667 11.5C18.6667 10.5741 17.9205 9.82353 17 9.82353C16.0795 9.82353 15.3333 10.5741 15.3333 11.5C15.3333 12.4259 16.0795 13.1765 17 13.1765Z" fill="#282727"/>
</svg>
