<svg width="20" height="18" viewBox="0 0 20 18" fill="none" xmlns="http://www.w3.org/2000/svg">
<path d="M19.5853 8.8555L11.0611 0.736868L10.4898 0.192403C10.3596 0.0691656 10.1835 0 10 0C9.81654 0 9.64048 0.0691656 9.5103 0.192403L0.414826 8.8555C0.281429 8.98212 0.176004 9.13293 0.104772 9.29901C0.0335409 9.4651 -0.002053 9.6431 9.14394e-05 9.8225C0.00891557 10.5625 0.655283 11.1532 1.43181 11.1532H2.36937V18H17.6307V11.1532H18.5881C18.9654 11.1532 19.3205 11.0123 19.5875 10.758C19.7189 10.6331 19.823 10.4847 19.8938 10.3212C19.9647 10.1578 20.0007 9.98253 20 9.80569C20 9.44832 19.8522 9.10987 19.5853 8.8555ZM11.2354 16.4864H8.76466V12.198H11.2354V16.4864ZM16.0424 9.63962V16.4864H12.6473V11.6934C12.6473 11.2289 12.2524 10.8526 11.7649 10.8526H8.23521C7.74768 10.8526 7.3528 11.2289 7.3528 11.6934V16.4864H3.95771V9.63962H1.83992L10.0022 1.86784L10.5118 2.35345L18.1624 9.63962H16.0424Z" fill="#5A5858"/>
</svg>
