<svg width="24" height="24" viewBox="0 0 24 24" fill="none" xmlns="http://www.w3.org/2000/svg">
<path fill-rule="evenodd" clip-rule="evenodd" d="M16.0234 15.2502C15.9728 15.2329 15.8831 15.224 15.778 15.2476C15.729 15.2585 15.6889 15.274 15.6607 15.2886C15.6438 15.2974 15.6349 15.3038 15.6323 15.3058L15.5827 15.3567L12.9881 17.3154L12.4246 17.0145C9.90354 15.6688 8.31329 14.0803 6.9833 11.5732L6.68532 11.0115L8.59294 8.47572L8.64294 8.42578C8.7612 8.30768 8.80733 8.13675 8.75493 7.9638C8.38272 6.83317 8.19428 5.64877 8.19428 4.44441C8.1943 4.20027 7.99408 4 7.74997 4H4.44436C4.20024 4 4 4.20024 4 4.44436C4 13.021 10.979 20 19.5556 20C19.7998 20 20 19.7998 20 19.5556V16.2593C20 16.2593 20 16.2593 20 16.2593C20 16.0152 19.7997 15.8149 19.5556 15.8149C18.3492 15.8149 17.1611 15.6262 16.0324 15.2532L16.0234 15.2502ZM21 16.2593V19.5556C21 20.352 20.352 21 19.5556 21C10.4268 21 3 13.5733 3 4.44436C3 3.64795 3.64795 3 4.44436 3H7.74997C8.54638 3 9.19433 3.64795 9.19428 4.44441C9.19428 5.54691 9.36716 6.62845 9.70747 7.65923C9.87303 8.18658 9.73484 8.74861 9.34958 9.13336L7.86669 11.1045C9.1025 13.4341 10.5483 14.8794 12.8955 16.1324L14.9194 14.6045C15.226 14.2896 15.8437 14.1323 16.3462 14.3037C17.3716 14.6426 18.4536 14.8149 19.5556 14.8149C20.352 14.8149 21 15.4629 21 16.2593Z" fill="#282727"/>
</svg>
