<svg width="14" height="20" viewBox="0 0 14 20" fill="none" xmlns="http://www.w3.org/2000/svg">
<path d="M2.69133 3.07285C2.69133 3.24092 2.55642 3.37708 2.38989 3.37708C2.22353 3.37708 2.08845 3.24092 2.08845 3.07285C2.08441 1.97647 2.66172 0.961412 3.60187 0.412034C4.54202 -0.137345 5.70152 -0.137345 6.64167 0.412034C7.58182 0.961412 8.15913 1.97647 8.15492 3.07285C8.15492 3.24092 8.02002 3.37708 7.85348 3.37708C7.68712 3.37708 7.55204 3.24092 7.55204 3.07285C7.55575 2.19412 7.09332 1.38041 6.33989 0.940021C5.58646 0.499636 4.65708 0.499636 3.90365 0.940021C3.15022 1.38041 2.6878 2.19412 2.69133 3.07285Z" fill="#282727"/>
<path d="M12.9681 8.78698H12.9969C13.547 8.78698 13.9956 9.26947 13.9969 9.87589C14.0011 11.7191 14.0005 12.3345 13.9983 14.0078C13.9974 14.6337 13.9964 15.4108 13.9954 16.4467C13.9936 18.403 12.5289 20 10.7304 20H6.504C5.32465 20 4.23327 19.2992 3.65613 18.1799L0 11.0887L0.206399 10.9145C0.208902 10.9124 0.211341 10.9101 0.213715 10.9078C0.215169 10.9064 0.2166 10.905 0.218005 10.9037C0.535594 10.602 0.963194 10.4472 1.39836 10.4762C1.84295 10.5103 2.2534 10.7293 2.53145 11.0809L3.58599 12.3764C3.66673 12.4758 3.80063 12.5131 3.9204 12.4698C4.04033 12.4265 4.12023 12.3119 4.1204 12.1834L4.12646 3.26994C4.12696 2.66233 4.58148 2.16795 5.13288 2.16795C5.68412 2.16795 6.1388 2.6625 6.1388 3.27061V8.64573C6.1388 8.65496 6.13859 8.66423 6.13838 8.67353C6.13817 8.68287 6.13796 8.69222 6.13796 8.70158C6.13796 8.70542 6.13818 8.70931 6.13839 8.71317C6.1386 8.71699 6.1388 8.72079 6.1388 8.7245V11.0235C6.1388 11.1916 6.27371 11.3278 6.44024 11.3278C6.60661 11.3278 6.74168 11.1916 6.74168 11.0235V8.65591C6.74168 8.06902 7.19115 7.61352 7.72876 7.61352H7.75938C8.31078 7.61352 8.76563 8.0938 8.76563 8.70175V10.8044C8.76563 10.9724 8.90054 11.1086 9.06707 11.1086C9.23344 11.1086 9.36851 10.9724 9.36851 10.8044V9.1547C9.36851 8.54658 9.80604 8.05187 10.3605 8.05187C10.9119 8.05187 11.3494 8.54658 11.3494 9.1547V10.7112C11.3494 10.8791 11.4843 11.0154 11.6508 11.0154C11.8172 11.0154 11.9523 10.8791 11.9523 10.7112V9.86825C11.9523 9.26013 12.4166 8.78698 12.9681 8.78698Z" fill="#282727"/>
</svg>
