<svg width="12" height="20" viewBox="0 0 12 20" fill="none" xmlns="http://www.w3.org/2000/svg">
<path d="M0 5.64394H2.9182C2.9182 3.90374 3.93073 2.56016 5.92483 2.56016C7.4392 2.56016 8.82756 3.32442 8.82756 5.16266C8.82756 6.57754 8.00074 7.22816 6.69418 8.21747C5.20634 9.30704 4.028 10.5793 4.11201 12.6448L4.12749 13.6765H7.01695V12.8855C7.01695 11.2857 7.62049 10.82 9.24981 9.57442C10.5962 8.54278 12 7.3975 12 4.99332C12 1.62656 9.17907 0 6.09064 0C3.15917 0 -0.0685337 1.44162 0.0022106 5.64394H0ZM3.45321 17.9345C3.45321 19.1221 4.39278 20 5.68607 20C7.03242 20 7.95873 19.1221 7.95873 17.9345C7.95873 16.7045 7.03021 15.84 5.68386 15.84C4.39278 15.84 3.45321 16.7045 3.45321 17.9345Z" fill="#282727"/>
</svg>
