<svg width="24" height="24" viewBox="0 0 24 24" fill="none" xmlns="http://www.w3.org/2000/svg">
<path fill-rule="evenodd" clip-rule="evenodd" d="M11.0054 3C15.4267 3 19.0108 6.58412 19.0108 11.0054C19.0108 12.9706 18.3026 14.7705 17.1275 16.1637L21.0005 20.0367L20.0367 21.0005L16.1637 17.1275C14.7705 18.3026 12.9707 19.0108 11.0054 19.0108C6.58413 19.0108 3 15.4266 3 11.0054C3 6.58412 6.58414 3 11.0054 3ZM4.36305 11.0054C4.36305 14.6738 7.33693 17.6477 11.0054 17.6477C14.6739 17.6477 17.6477 14.6738 17.6477 11.0054C17.6477 7.33691 14.6739 4.36305 11.0054 4.36305C7.33693 4.36305 4.36305 7.33692 4.36305 11.0054Z" fill="#282727"/>
</svg>
