<svg width="20" height="19" viewBox="0 0 20 19" fill="none" xmlns="http://www.w3.org/2000/svg">
<path fill-rule="evenodd" clip-rule="evenodd" d="M11.0555 3.35294H20V2.23529H11.0555C10.7982 0.959924 9.6772 0 8.33333 0C6.79921 0 5.55556 1.25097 5.55556 2.79412V2.23529H0V3.35294H5.55556V2.79412C5.55556 4.33727 6.79921 5.58824 8.33333 5.58824C9.6772 5.58824 10.7982 4.62831 11.0555 3.35294ZM8.33333 4.47059C9.25381 4.47059 10 3.72001 10 2.79412C10 1.86823 9.25381 1.11765 8.33333 1.11765C7.41286 1.11765 6.66667 1.86823 6.66667 2.79412C6.66667 3.72001 7.41286 4.47059 8.33333 4.47059Z" fill="#282727"/>
<path fill-rule="evenodd" clip-rule="evenodd" d="M2.27779 16.7647C2.53516 18.0401 3.65613 19 5 19C6.34387 19 7.46484 18.0401 7.72221 16.7647H20V15.6471H7.72221C7.46484 14.3717 6.34387 13.4118 5 13.4118C3.65613 13.4118 2.53516 14.3717 2.27779 15.6471H0V16.7647H2.27779ZM5 17.8824C5.92048 17.8824 6.66667 17.1318 6.66667 16.2059C6.66667 15.28 5.92048 14.5294 5 14.5294C4.07953 14.5294 3.33333 15.28 3.33333 16.2059C3.33333 17.1318 4.07953 17.8824 5 17.8824Z" fill="#282727"/>
<path fill-rule="evenodd" clip-rule="evenodd" d="M17.7222 8.94118C17.4648 7.66581 16.3439 6.70588 15 6.70588C13.6561 6.70588 12.5352 7.66581 12.2778 8.94118H0V10.0588H12.2778C12.5352 11.3342 13.6561 12.2941 15 12.2941C16.3439 12.2941 17.4648 11.3342 17.7222 10.0588H20V8.94118H17.7222ZM15 11.1765C15.9205 11.1765 16.6667 10.4259 16.6667 9.5C16.6667 8.57411 15.9205 7.82353 15 7.82353C14.0795 7.82353 13.3333 8.57411 13.3333 9.5C13.3333 10.4259 14.0795 11.1765 15 11.1765Z" fill="#282727"/>
</svg>
