<svg width="24" height="24" viewBox="0 0 24 24" fill="none" xmlns="http://www.w3.org/2000/svg">
<path d="M18 15.8776C17.2875 15.8776 16.63 16.1327 16.115 16.5587L10.935 12.7347C11.0217 12.2489 11.0217 11.7511 10.935 11.2653L16.115 7.44133C16.63 7.86735 17.2875 8.12245 18 8.12245C19.655 8.12245 21 6.75 21 5.06122C21 3.37245 19.655 2 18 2C16.345 2 15 3.37245 15 5.06122C15 5.35714 15.04 5.64031 15.1175 5.91071L10.1975 9.54592C9.4675 8.55867 8.3075 7.91837 7 7.91837C4.79 7.91837 3 9.7449 3 12C3 14.2551 4.79 16.0816 7 16.0816C8.3075 16.0816 9.4675 15.4413 10.1975 14.4541L15.1175 18.0893C15.04 18.3597 15 18.6454 15 18.9388C15 20.6276 16.345 22 18 22C19.655 22 21 20.6276 21 18.9388C21 17.25 19.655 15.8776 18 15.8776ZM18 3.73469C18.7175 3.73469 19.3 4.32908 19.3 5.06122C19.3 5.79337 18.7175 6.38776 18 6.38776C17.2825 6.38776 16.7 5.79337 16.7 5.06122C16.7 4.32908 17.2825 3.73469 18 3.73469ZM7 14.2449C5.7875 14.2449 4.8 13.2372 4.8 12C4.8 10.7628 5.7875 9.7551 7 9.7551C8.2125 9.7551 9.2 10.7628 9.2 12C9.2 13.2372 8.2125 14.2449 7 14.2449ZM18 20.2653C17.2825 20.2653 16.7 19.6709 16.7 18.9388C16.7 18.2066 17.2825 17.6122 18 17.6122C18.7175 17.6122 19.3 18.2066 19.3 18.9388C19.3 19.6709 18.7175 20.2653 18 20.2653Z" fill="#282727"/>
</svg>
