<svg width="20" height="18" viewBox="0 0 20 18" fill="none" xmlns="http://www.w3.org/2000/svg">
<path fill-rule="evenodd" clip-rule="evenodd" d="M4.51323 17.9316C4.03074 18.1692 3.48325 17.7528 3.58075 17.2201V17.2225L4.61823 11.5469L0.214563 7.52C-0.196679 7.14323 0.0170664 6.45448 0.568306 6.38009L6.69069 5.54495L9.42064 0.351746C9.47264 0.2465 9.55469 0.15758 9.65724 0.0953161C9.7598 0.033052 9.87865 0 10 0C10.1213 0 10.2402 0.033052 10.3428 0.0953161C10.4453 0.15758 10.5274 0.2465 10.5794 0.351746L13.3093 5.54375L19.4317 6.37889C19.9829 6.45328 20.1967 7.14203 19.7854 7.5188L15.3818 11.5457L16.4193 17.2213C16.5168 17.7528 15.9693 18.1692 15.4868 17.9316L10.0006 15.2246L4.51323 17.9316ZM10 2.07V13.8328C10.1002 13.8328 10.199 13.8558 10.2881 13.8999L14.8955 16.1725L14.028 11.4245C14.0074 11.315 14.0152 11.2023 14.0507 11.0964C14.0863 10.9905 14.1485 10.8947 14.2318 10.8173L17.8642 7.4936L12.7993 6.80365C12.6944 6.78845 12.595 6.74907 12.5094 6.68888C12.4239 6.6287 12.3548 6.5495 12.3081 6.45808L10.0006 2.06881L10 2.07Z" fill="#282727"/>
</svg>
