<svg width="20" height="18" viewBox="0 0 20 18" fill="none" xmlns="http://www.w3.org/2000/svg">
<path fill-rule="evenodd" clip-rule="evenodd" d="M3.58075 17.2201C3.48325 17.7528 4.03074 18.1692 4.51323 17.9316L10.0006 15.2246L15.4868 17.9316C15.9693 18.1692 16.5168 17.7528 16.4193 17.2213L15.3818 11.5457L19.7854 7.5188C20.1967 7.14203 19.9829 6.45328 19.4317 6.37889L13.3093 5.54375L10.5794 0.351746C10.5274 0.2465 10.4453 0.15758 10.3428 0.0953161C10.2402 0.033052 10.1213 0 10 0C9.87865 0 9.7598 0.033052 9.65724 0.0953161C9.55469 0.15758 9.47264 0.2465 9.42064 0.351746L6.69069 5.54495L0.568306 6.38009C0.0170665 6.45448 -0.196679 7.14323 0.214563 7.52L4.61823 11.5469L3.58075 17.2225V17.2201ZM9.71188 13.8999L5.10447 16.1725L5.97195 11.4245C5.99227 11.3152 5.98432 11.2028 5.9488 11.0971C5.91327 10.9915 5.85126 10.8958 5.76821 10.8185L2.13578 7.4948L7.20068 6.80365C7.30556 6.78845 7.40503 6.74907 7.49059 6.68888C7.57614 6.6287 7.64523 6.5495 7.69192 6.45808L10.0006 2.06881L12.3081 6.45808C12.3548 6.5495 12.4239 6.6287 12.5094 6.68888C12.595 6.74907 12.6944 6.78845 12.7993 6.80365L17.8642 7.4936L14.2318 10.8173C14.1485 10.8947 14.0863 10.9905 14.0507 11.0964C14.0152 11.2023 14.0074 11.315 14.028 11.4245L14.8955 16.1725L10.2881 13.8999C10.199 13.8558 10.1002 13.8328 10 13.8328C9.89976 13.8328 9.80097 13.8558 9.71188 13.8999Z" fill="#282727"/>
</svg>
