<svg width="24" height="24" viewBox="0 0 24 24" fill="none" xmlns="http://www.w3.org/2000/svg">
<path fill-rule="evenodd" clip-rule="evenodd" d="M7.8 3C4.54963 3 2 5.46789 2 8.58135C2 10.4872 2.89545 12.1684 4.33566 13.8651C5.75886 15.5418 7.77988 17.3077 10.1502 19.3789L10.1959 19.4188L11.9983 21L13.8032 19.4286L13.8046 19.4274L13.8742 19.3664L13.8742 19.3664C16.2341 17.3 18.2462 15.5381 19.6645 13.8661C21.1046 12.1683 22 10.4872 22 8.58135C22 5.46789 19.4504 3 16.2 3C14.6261 3 13.1162 3.60525 12 4.59523C10.8838 3.60525 9.37387 3 7.8 3Z" fill="#282727"/>
</svg>
