<svg width="24" height="24" viewBox="0 0 24 24" fill="none" xmlns="http://www.w3.org/2000/svg">
<path fill-rule="evenodd" clip-rule="evenodd" d="M7.8 4.26951C5.30104 4.26951 3.33333 6.15462 3.33333 8.58135C3.33333 10.0752 4.02455 11.4789 5.37267 13.0671C6.72868 14.6646 8.68081 16.3718 11.0974 18.4835L12.0017 19.2768L12.902 18.493L12.9031 18.492C15.3194 16.3762 17.2712 14.667 18.6272 13.0684C19.9754 11.4789 20.6667 10.0752 20.6667 8.58135C20.6667 6.15462 18.699 4.26951 16.2 4.26951C14.7809 4.26951 13.4061 4.90924 12.5101 5.92313L12 6.50037L11.4899 5.92313C10.5939 4.90924 9.21914 4.26951 7.8 4.26951ZM2 8.58135C2 5.46789 4.54963 3 7.8 3C9.37387 3 10.8838 3.60525 12 4.59523C13.1162 3.60525 14.6261 3 16.2 3C19.4504 3 22 5.46789 22 8.58135C22 10.4872 21.1046 12.1683 19.6645 13.8661C18.2462 15.5381 16.2341 17.3 13.8742 19.3664L13.8046 19.4274L13.8032 19.4286L11.9983 21L10.1959 19.4188L10.1502 19.3789C7.77988 17.3077 5.75886 15.5418 4.33566 13.8651C2.89545 12.1684 2 10.4872 2 8.58135Z" fill="#282727"/>
</svg>
