<svg fill="none" viewBox="0 0 1156 163" xmlns="http://www.w3.org/2000/svg"><path d="M400.25 96.906v33.29h10.422c5.459 0 11.017-3.838 13.068-8.316 1.624-3.552 2.738-10.524-.15-17.05-3.809-8.6-12.131-7.826-12.926-7.932H400.25v.009zm.042-65.688v30.787h10.314c5.458 0 9.518-3.535 11.41-7.684 1.498-3.294 2.578-9.74-.151-15.758-3.298-7.292-9.694-7.274-11.201-7.346h-10.372zM327.636.261s103.9.027 121.65.018c33.921-.036 41.908 27.048 41.966 42.94.101 28.562-18.718 35.577-18.718 35.577s20.275 8.137 20.275 38.578c0 47.419-40.886 45.478-47.215 45.478h-117.96V.262zm472.15 162.61V125.53h-33.067V95.9h32.724V63.555h-32.724V32.233h33.067V.279h-108.67v162.59h108.67zm-197.33 0h75.527V.281h-75.527v61.593h-24.487V.281h-77.277v162.59h77.277V94.547h24.487v68.324zm-285.07 0V125.53H284.31V95.9h32.724V63.555H284.31V32.233h33.076V.279h-108.7v162.59h108.7zM121.266.281h74.272v162.59h-74.272V.281zm-10.874 162.59v-44.882H77.308V.279H.709v162.59h109.68zm770.07-131.65v38.515h9.05c9.803 0 13.285-4.923 15.437-10.123 1.708-4.122 2.846-11.565.008-19.195-1.557-4.149-5.642-9.188-15.445-9.188h-9.05v-.01zM810.368.282l113.99-.018c35.721 0 49.224 25.668 49.224 47.82 0 37.722-31.979 44.471-31.979 44.471l41.431 70.3h-83.347l-17.915-46.698.034 46.698h-71.434V.285zm243.04 30.939v38.515h9.06c9.82 0 13.29-4.923 15.42-10.123 1.71-4.122 2.86-11.565 0-19.195-1.54-4.149-5.6-9.188-15.43-9.188h-9.05v-.01zM983.328.282l113.97-.018c35.73 0 49.23 25.668 49.23 47.82 0 37.722-31.98 44.471-31.98 44.471l41.42 70.3h-83.33l-17.91-46.698.03 46.698h-71.43V.285z" fill="#23364B"/></svg>