<svg width="134" height="32" viewBox="0 0 134 32" fill="none" xmlns="http://www.w3.org/2000/svg">
<path fill-rule="evenodd" clip-rule="evenodd" d="M31.3378 31.4577H97.6033V30.1671H31.3378V31.4577Z" fill="#282727"/>
<path d="M0 23.0689V0.806605H3.59074V10.0019L11.5883 0.806605H16.1583L7.3447 10.6472L17.3009 22.9076H12.5676L3.75396 11.6151V22.9076H0V23.0689ZM36.5603 23.0689L34.1121 17.2613H25.2984L22.687 23.0689H18.7698L29.542 0L40.4775 23.0689H36.5603ZM29.7052 6.77548C29.542 7.09812 29.3788 7.58208 29.2156 8.06604C29.0524 8.55001 28.8892 8.87265 28.7259 9.35661L26.4409 14.3576H32.6431L30.3581 9.35661C30.1949 9.03397 30.0317 8.71133 30.0317 8.38869C29.8685 8.06604 29.8685 7.7434 29.7052 7.42076V7.25944C29.7052 6.9368 29.7052 6.77548 29.7052 6.77548ZM47.4957 13.067V22.9076H44.0682V0.806605H49.1279C49.2911 0.806605 49.6175 0.806605 49.7808 0.806605C49.944 0.806605 50.2704 0.806605 50.4336 0.806605C51.2497 0.806605 52.0658 0.967925 52.8819 1.12925C53.6979 1.29057 54.3508 1.77453 55.0037 2.41981C55.4933 2.90378 55.9829 3.54906 56.3094 4.19434C56.6358 4.83963 56.799 5.48491 56.799 6.29152C56.799 6.45284 56.799 6.45284 56.799 6.61416C56.799 6.77548 56.799 6.77548 56.799 6.9368C56.799 8.71133 56.3094 10.1632 55.4933 11.1311C54.6772 12.0991 53.3715 12.7444 51.5761 12.9057L59.2473 23.0689H55.1669L47.659 13.2283H47.4957V13.067ZM47.659 4.03302V10.3245C47.8222 10.3245 47.8222 10.3245 47.9854 10.3245C48.1486 10.3245 48.1486 10.3245 48.3118 10.3245H48.475C48.6382 10.3245 48.6382 10.3245 48.8015 10.3245C48.9647 10.3245 48.9647 10.3245 49.1279 10.3245C49.2911 10.3245 49.2911 10.3245 49.4543 10.3245C50.2704 10.3245 51.2497 10.0019 51.9026 9.67925C52.7186 9.35661 53.0451 8.55001 53.0451 7.42076V7.25944C53.0451 5.80755 52.5554 4.83963 51.5761 4.51698C50.5968 4.19434 49.4543 4.03302 48.3118 4.03302H47.659ZM63.0012 23.0689V0.806605H66.592V22.9076H63.0012V23.0689ZM86.9939 23.0689L84.5457 17.2613H75.732L73.1206 23.0689H69.2034L79.9756 0L90.9111 23.0689H86.9939ZM80.1389 6.77548C79.9756 7.09812 79.8124 7.58208 79.8124 8.06604C79.6492 8.55001 79.486 8.87265 79.3228 9.35661L77.0378 14.3576H83.24L80.9549 9.35661C80.7917 9.03397 80.6285 8.71133 80.6285 8.38869C80.4653 8.06604 80.4653 7.7434 80.3021 7.42076V7.25944C80.1389 6.9368 80.1389 6.77548 80.1389 6.77548ZM94.665 23.0689V0L108.865 13.551C109.028 13.7123 109.028 13.7123 109.191 13.8736C109.354 13.8736 109.354 14.0349 109.518 14.1962C109.681 14.3576 109.844 14.5189 110.007 14.6802C110.171 14.8415 110.334 15.0028 110.497 15.1642C110.66 15.3255 110.823 15.4868 110.987 15.6481C111.15 15.8094 111.313 15.9708 111.476 16.2934V0.806605H114.741V23.8755L100.214 10.1632C99.7247 9.84058 99.3983 9.35661 99.0719 9.03397C98.7454 8.55001 98.2558 8.06604 97.9294 7.58208V23.0689H94.665ZM127.961 4.03302V23.0689H124.37V4.03302H118.495V0.806605H134V3.8717H127.961V4.03302Z" fill="#282727"/>
</svg>
