<svg viewBox="0 0 54 21" xmlns="http://www.w3.org/2000/svg"><path d="M7.415 9.87c-.31.279-.465.63-.465 1.055 0 .425.155.777.465 1.055.31.28.665.42 1.067.42.392 0 .737-.136 1.034-.406.296-.27.445-.626.445-1.069 0-.442-.149-.798-.445-1.069a1.488 1.488 0 0 0-1.034-.405c-.402 0-.757.14-1.067.419zm20.528 2.462c.393 0 .722-.13.988-.391.267-.26.4-.604.4-1.03 0-.407-.136-.743-.406-1.009a1.354 1.354 0 0 0-.982-.399c-.384 0-.71.134-.975.399-.267.266-.4.602-.4 1.01 0 .425.133.768.4 1.029.266.261.59.391.975.391zm11.284-1.952h2.645c-.044-.345-.195-.61-.452-.79a1.417 1.417 0 0 0-.831-.273c-.297 0-.58.09-.851.266-.27.178-.441.443-.511.797z" fill="#8D9293"/><path d="M54 0H0v21h54V0zM9.961 14.032v-.704c-.175.266-.443.47-.806.611-.362.142-.686.212-.974.212-.82 0-1.545-.297-2.174-.896-.628-.598-.942-1.375-.942-2.33 0-.956.314-1.733.942-2.33.629-.6 1.353-.897 2.174-.897.288 0 .604.062.949.186.344.124.621.336.831.637v-.69h1.806v6.201H9.962zm4.573 0v-2.165c0-1.647.507-2.47 1.52-2.47.365 0 .675.062.928.186l.328-1.66c-.297-.15-.646-.225-1.048-.225-.349 0-.687.137-1.014.41-.328.276-.566.683-.714 1.223v-1.5h-1.819v6.201h1.82zM19.76 7.83h1.396v1.6H19.76v4.602h-1.806V5.453h1.806V7.83zm.799 7.65v1.673h1.113c.828 0 1.422-.232 1.78-.697.358-.465.537-1.131.537-1.998V7.83h-1.833v6.667c.017.655-.249.983-.798.983h-.799zm1.375-9.947c0 .301.11.557.334.77.222.213.49.32.804.319a1.1 1.1 0 0 0 .8-.32c.217-.212.327-.468.327-.769 0-.3-.11-.555-.328-.764a1.12 1.12 0 0 0-.799-.312 1.14 1.14 0 0 0-.804.312 1.006 1.006 0 0 0-.334.764zm8.267 7.709c-.615.597-1.368.896-2.258.896-.89 0-1.64-.299-2.252-.896-.61-.598-.917-1.375-.917-2.33 0-.957.306-1.732.917-2.325.611-.592 1.362-.89 2.252-.89.89 0 1.643.298 2.258.89.615.593.923 1.368.923 2.325 0 .955-.308 1.732-.923 2.33zm3.515.79v-2.457l2.042 2.457h2.239l-3.05-3.466 2.54-2.736h-2.318l-1.453 1.7V4.458H31.91v9.575h1.806zm8.326-2.045l1.322.917c-.559.84-1.489 1.26-2.789 1.26-.899 0-1.655-.303-2.27-.91-.616-.605-.924-1.387-.924-2.342 0-.957.308-1.732.923-2.326.616-.592 1.373-.888 2.271-.888.89 0 1.635.302 2.233.909.598.606.896 1.393.896 2.357 0 .169-.008.358-.026.572H39.2c.043.336.216.593.517.77.301.177.63.265.989.265.593 0 1.037-.194 1.335-.584zm4.024 2.032v-2.166c0-1.646.506-2.47 1.519-2.47.366 0 .676.063.929.187l.328-1.66a2.302 2.302 0 0 0-1.048-.226c-.35 0-.688.137-1.015.411-.327.276-.565.682-.713 1.223V7.817h-1.82v6.202h1.82z" clip-rule="evenodd" fill="#8D9293" fill-rule="evenodd"/></svg>