<svg width="24" height="35" fill="none" xmlns="http://www.w3.org/2000/svg"><rect x=".75" y=".75" width="22.5" height="30.5" rx="3.25" stroke="#fff" stroke-width="1.5"/><mask id="a" fill="#fff"><rect x="3" y="7" width="18" height="20" rx="1"/></mask><rect x="3" y="7" width="18" height="20" rx="1" stroke="#fff" stroke-width="3" mask="url(#a)"/><path d="M15 4H9m11 10H3m17 7H3m13.055 10.166v.945A1.89 1.89 0 0 0 17.945 34v0a1.889 1.889 0 0 0 1.888-1.89v-.944m-16.055 0v.945c0 1.043.845 1.889 1.888 1.889v0a1.889 1.889 0 0 0 1.89-1.89v-.944" stroke="#fff" stroke-width="1.5"/></svg>