<svg fill="none" viewBox="0 0 26 27" xmlns="http://www.w3.org/2000/svg"><path d="M5.589 20.258c-.476-.588-1.055-1.789-2.085-3.247-.584-.824-2.032-2.377-2.463-3.166-.374-.697-.333-1.01-.244-1.587.157-1.028 1.237-1.828 2.39-1.72.87.08 1.608.641 2.273 1.172.4.319.894.939 1.19 1.29.274.32.341.452.633.832.386.502.507.751.36.198-.12-.812-.315-2.198-.596-3.423-.215-.93-.267-1.075-.472-1.789-.216-.76-.327-1.29-.53-2.096-.14-.57-.394-1.733-.463-2.387-.095-.896-.146-2.355.443-3.026.461-.525 1.52-.684 2.176-.36.859.424 1.347 1.641 1.57 2.127.4.874.649 1.884.865 3.21.275 1.686.782 4.028.799 4.52.04-.603-.114-1.875-.007-2.454.097-.525.55-1.136 1.117-1.301.48-.14 1.042-.19 1.537-.09.525.105 1.078.471 1.285.816.607 1.022.619 3.108.644 2.997.144-.616.119-2.011.476-2.592.235-.383.834-.729 1.153-.784.493-.085 1.098-.111 1.617-.013.417.08.983.564 1.135.797.366.563.574 2.155.636 2.713.025.23.124-.642.491-1.205.681-1.045 3.092-1.248 3.184 1.046.042 1.07.034 1.021.034 1.741 0 .846-.02 1.355-.067 1.967-.052.655-.197 2.134-.406 2.85-.145.493-.623 1.6-1.094 2.265 0 0-1.802 2.046-1.998 2.967-.198.92-.132.926-.17 1.58-.04.65.202 1.508.202 1.508s-1.345.17-2.07.057c-.656-.103-1.468-1.376-1.677-1.765-.289-.537-.904-.434-1.144-.038-.378.627-1.19 1.75-1.763 1.821-1.12.138-3.446.05-5.266.033 0 0 .31-1.655-.38-2.222-.512-.424-1.393-1.283-1.92-1.735L5.59 20.258z" clip-rule="evenodd" fill="#FCFCFC" fill-rule="evenodd"/><path d="M5.589 20.258c-.476-.588-1.055-1.789-2.085-3.247-.584-.824-2.032-2.377-2.463-3.166-.374-.697-.333-1.01-.244-1.587.157-1.028 1.237-1.828 2.39-1.72.87.08 1.608.641 2.273 1.172.4.319.894.939 1.19 1.29.274.32.341.452.633.832.386.502.507.751.36.198-.12-.812-.315-2.198-.596-3.423-.215-.93-.267-1.075-.472-1.789-.216-.76-.327-1.29-.53-2.096-.14-.57-.394-1.733-.463-2.387-.095-.896-.146-2.355.443-3.026.461-.525 1.52-.684 2.176-.36.859.424 1.347 1.641 1.57 2.127.4.874.649 1.884.865 3.21.275 1.686.782 4.028.799 4.52.04-.603-.114-1.875-.007-2.454.097-.525.55-1.136 1.117-1.301.48-.14 1.042-.19 1.537-.09.525.105 1.078.471 1.285.816.607 1.022.619 3.108.644 2.997.144-.616.119-2.011.476-2.592.235-.383.834-.729 1.153-.784.493-.085 1.098-.111 1.617-.013.417.08.983.564 1.135.797.366.563.574 2.155.636 2.713.025.23.124-.642.491-1.205.681-1.045 3.092-1.248 3.184 1.046.042 1.07.034 1.021.034 1.741 0 .846-.02 1.355-.067 1.967-.052.655-.197 2.134-.406 2.85-.145.493-.623 1.6-1.094 2.265 0 0-1.802 2.046-1.998 2.967-.198.92-.132.926-.17 1.58-.04.65.202 1.508.202 1.508s-1.345.17-2.07.057c-.656-.103-1.468-1.376-1.677-1.765-.289-.537-.904-.434-1.144-.038-.378.627-1.19 1.75-1.763 1.821-1.12.138-3.446.05-5.266.033 0 0 .31-1.655-.38-2.222-.512-.424-1.393-1.283-1.92-1.735L5.59 20.258z" clip-rule="evenodd" fill="url(#a)" fill-rule="evenodd"/><path d="M19.402 20.838v-5.66 5.66z" clip-rule="evenodd" fill="#FCFCFC" fill-rule="evenodd"/><path d="M19.402 20.838v-5.66 5.66z" clip-rule="evenodd" fill="url(#a)" fill-rule="evenodd"/><path d="M16.021 20.857l-.027-5.683.027 5.683z" clip-rule="evenodd" fill="#FCFCFC" fill-rule="evenodd"/><path d="M16.021 20.857l-.027-5.683.027 5.683z" clip-rule="evenodd" fill="url(#a)" fill-rule="evenodd"/><path d="M12.673 15.226l.035 5.606-.035-5.606z" clip-rule="evenodd" fill="#FCFCFC" fill-rule="evenodd"/><path d="M12.673 15.226l.035 5.606-.035-5.606z" clip-rule="evenodd" fill="url(#a)" fill-rule="evenodd"/><path d="M5.589 20.258l-.388.315a.488.488 0 0 0 .021.025l.367-.34zm-2.085-3.247l.408-.288-.408.289zM1.04 13.845l-.44.236.002.004.439-.24zm-.244-1.587l.494.076-.494-.076zm2.39-1.72l-.047.498h.001l.046-.498zM5.46 11.71l-.312.39.312-.39zM6.65 13l-.38.322v.002l.38-.325zm.633.832l.397-.304-.397.304zm.36.198l-.496.073a.495.495 0 0 0 .012.056l.483-.129zm-.596-3.423l.487-.112-.487.112zm-.472-1.789l-.48.137v.001l.48-.138zm-.53-2.096l-.485.12v.002l.485-.122zm-.463-2.387l.498-.053-.498.053zm.443-3.026L5.65.979l.376.33zm2.176-.36l-.222.448.222-.448zm1.57 2.127l.454-.208-.454.208zm.865 3.21l.494-.081-.494.08zm.799 4.52l-.5.017a.5.5 0 0 0 .999.017l-.5-.034zm-.007-2.454l.492.09-.492-.09zm1.117-1.301l-.139-.48.14.48zm1.537-.09l-.1.49h.002l.098-.49zm1.285.816l.43-.255-.001-.001-.43.256zm.644 2.997l-.487-.114v.003l.487.11zm.476-2.592l.426.262v-.001l-.426-.261zm1.153-.784l-.085-.493h-.001l.086.493zm1.617-.013l.094-.491h-.001l-.093.49zm1.135.797l.42-.273-.002-.002-.418.275zm.636 2.713l.497-.054v-.001l-.497.055zm.491-1.205l.42.274-.42-.274zm3.184 1.046l.5-.02-.5.02zm-.033 3.708l.498.04v-.002l-.498-.038zm-.406 2.85l.48.141-.48-.14zM23.17 19.56l.375.33a.497.497 0 0 0 .033-.04l-.408-.29zm-1.998 2.967l.49.105-.49-.105zm-.17 1.58l.498.029-.499-.03zm.202 1.508l.063.496a.5.5 0 0 0 .418-.632l-.48.136zm-2.07.057l-.078.494h.001l.077-.494zm-1.677-1.765l-.44.236.44-.236zm-1.144-.038l-.428-.26v.002l.428.258zM14.55 25.69l-.061-.496.06.496zm-5.266.033l-.491-.092a.5.5 0 0 0 .486.592l.005-.5zm-.38-2.222l-.32.385.002.001.318-.386zm-1.92-1.735l-.366.34a.498.498 0 0 0 .041.04l.326-.38zm11.919-.927a.5.5 0 1 0 1 0h-1zm1-5.66a.5.5 0 1 0-1 0h1zm-4.381 5.682a.5.5 0 1 0 1-.005l-1 .005zm.973-5.688a.5.5 0 1 0-1 .005l1-.005zm-3.322.05a.5.5 0 1 0-1 .007l1-.006zm-.964 5.613a.5.5 0 1 0 1-.006l-1 .006zm-6.231-.892c-.21-.259-.452-.666-.795-1.239a30.163 30.163 0 0 0-1.27-1.981l-.817.577c.503.713.897 1.364 1.23 1.918.322.54.608 1.026.875 1.355l.777-.63zm-2.066-3.22c-.306-.433-.834-1.052-1.311-1.627-.5-.602-.933-1.148-1.12-1.49l-.878.479c.243.446.749 1.071 1.228 1.649.5.604.988 1.174 1.265 1.566l.816-.577zm-2.43-3.114c-.168-.315-.223-.504-.24-.656-.017-.162.003-.321.049-.62l-.988-.151c-.043.28-.088.566-.054.878.034.323.147.639.352 1.022l.881-.473zm-.19-1.275c.112-.736.928-1.384 1.848-1.298l.094-.996C1.85 9.91.505 10.862.303 12.182l.988.152zm1.85-1.298c.699.064 1.325.52 2.006 1.064l.624-.781c-.647-.517-1.497-1.183-2.54-1.279l-.09.996zM5.148 12.1c.35.28.797.84 1.12 1.221l.763-.646c-.27-.32-.81-.999-1.26-1.358l-.623.783zm1.121 1.223c.27.316.285.381.617.813l.793-.61c-.252-.327-.371-.527-.649-.852l-.76.649zm.617.813c.093.12.168.224.234.314.05.068.13.175.201.242.02.018.067.06.135.095a.513.513 0 0 0 .744-.521 2.225 2.225 0 0 0-.076-.366l-.966.258c.04.151.046.19.045.18 0-.004-.004-.045.007-.1a.486.486 0 0 1 .696-.343c.058.028.092.06.097.065.014.013.015.017-.007-.01a3.802 3.802 0 0 1-.072-.096c-.06-.081-.145-.197-.245-.327l-.793.609zm1.25-.18c-.118-.805-.316-2.213-.603-3.462l-.974.224c.276 1.202.468 2.566.588 3.384l.989-.146zm-.603-3.463c-.218-.943-.273-1.1-.478-1.814l-.961.276c.205.714.253.848.465 1.763l.974-.225zM7.055 8.68c-.214-.75-.317-1.255-.526-2.081l-.97.244c.198.784.316 1.343.535 2.111l.961-.274zM6.53 6.6c-.14-.566-.386-1.7-.451-2.319l-.995.105c.073.691.333 1.883.475 2.455l.97-.24zm-.451-2.32a8.064 8.064 0 0 1-.035-1.5c.047-.536.171-.932.356-1.142L5.65.979c-.404.46-.549 1.13-.6 1.715a9.049 9.049 0 0 0 .036 1.694l.995-.106zM6.4 1.64c.13-.147.386-.282.718-.335.33-.053.648-.012.86.093l.443-.896C7.98.28 7.44.24 6.961.317 6.485.393 5.98.6 5.65.979l.75.66zm1.579-.242c.302.15.578.463.819.854.236.385.398.772.518 1.034l.908-.417c-.103-.225-.297-.69-.575-1.14C9.376 1.281 8.978.774 8.422.5l-.442.897zm1.337 1.888c.373.813.612 1.77.826 3.08l.987-.16c-.219-1.341-.476-2.403-.905-3.337l-.908.417zm.826 3.08c.139.852.336 1.868.498 2.722.082.43.155.817.208 1.127.056.323.083.527.086.61l1-.035a6.641 6.641 0 0 0-.1-.744c-.055-.32-.13-.716-.211-1.145-.164-.861-.358-1.86-.494-2.695l-.987.16zm1.79 4.475c.023-.338-.008-.85-.027-1.292-.02-.483-.027-.883.014-1.105l-.983-.182c-.067.357-.05.882-.03 1.33.021.49.047.916.03 1.182l.997.067zm-.013-2.397c.031-.168.127-.376.277-.56a1.05 1.05 0 0 1 .488-.352l-.28-.96c-.404.118-.739.383-.98.678a2.3 2.3 0 0 0-.488 1.012l.983.182zm.765-.912c.42-.122.898-.16 1.298-.08l.198-.98c-.59-.12-1.235-.057-1.775.1l.279.96zm1.3-.08c.19.038.402.129.588.248.192.124.315.251.365.335l.858-.513c-.156-.262-.414-.49-.682-.662a2.773 2.773 0 0 0-.934-.388l-.196.98zm.952.582c.246.414.393 1.099.474 1.731.04.305.062.576.075.768l.017.227c.001.02.004.06.01.095.002.01.006.032.014.06a.517.517 0 0 0 .143.232.5.5 0 0 0 .527.095c.161-.065.232-.19.247-.215a.534.534 0 0 0 .055-.142l-.976-.22c0-.002.013-.065.053-.135a.5.5 0 0 1 .923.156c.003.016.003.022 0-.007l-.015-.218a14.73 14.73 0 0 0-.08-.824c-.083-.638-.246-1.507-.607-2.114l-.86.511zm1.56 2.855c.045-.188.073-.42.096-.646.025-.241.045-.472.073-.721.028-.243.06-.47.104-.666a1.44 1.44 0 0 1 .143-.411l-.852-.524a2.383 2.383 0 0 0-.266.715 7.315 7.315 0 0 0-.123.774c-.028.249-.051.519-.073.73a4.58 4.58 0 0 1-.075.52l.974.229zm.417-2.445c.062-.102.201-.235.39-.356.189-.122.354-.185.422-.197l-.172-.985c-.251.044-.545.182-.793.342-.25.16-.527.392-.7.673l.853.523zm.81-.552c.453-.079.996-.1 1.44-.015l.186-.983c-.593-.112-1.262-.08-1.795.012l.17.986zm1.439-.015c.094.018.265.103.46.25.193.144.32.283.352.33l.835-.549c-.121-.185-.352-.405-.585-.58-.23-.174-.55-.371-.874-.433l-.188.982zm.81.578c.053.08.118.232.186.456.065.215.124.466.174.726.102.52.168 1.042.198 1.314l.994-.11a17.911 17.911 0 0 0-.21-1.396 8.592 8.592 0 0 0-.2-.825 2.868 2.868 0 0 0-.303-.71l-.839.545zm.558 2.495c.002.018.008.079.032.145a.505.505 0 0 0 .7.287c.123-.061.185-.155.2-.176a.57.57 0 0 0 .077-.17c.021-.065.058-.207.086-.308.073-.254.173-.55.312-.763l-.837-.547c-.228.35-.361.771-.436 1.036-.046.16-.061.227-.077.278l.007-.018a.431.431 0 0 1 .035-.063.497.497 0 0 1 .74-.091c.095.084.128.18.135.198a.404.404 0 0 1 .02.083l-.994.109zm1.408-.986c.217-.333.782-.589 1.319-.508.25.038.467.146.627.33.16.185.3.486.319.971l.999-.04c-.027-.663-.224-1.196-.563-1.586a2.007 2.007 0 0 0-1.233-.664c-.862-.13-1.843.24-2.306.952l.838.545zm2.265.793c.041 1.06.033 1.004.033 1.721h1c0-.723.008-.681-.034-1.76l-1 .039zm.033 1.721c0 .835-.02 1.331-.066 1.929l.997.076c.048-.626.069-1.148.069-2.005h-1zm-.066 1.927c-.053.668-.195 2.092-.387 2.75l.96.28c.227-.775.373-2.309.424-2.95l-.997-.08zm-.387 2.75c-.132.45-.588 1.505-1.022 2.116l.816.579c.51-.718 1.009-1.878 1.166-2.414l-.96-.281zm-.614 2.405l-.375-.33-.002.002a.238.238 0 0 0-.004.005l-.016.018-.06.069c-.05.06-.124.145-.211.25-.176.21-.412.5-.656.822-.242.32-.497.677-.705 1.018-.2.327-.39.69-.458 1.009l.978.208c.03-.141.14-.38.333-.695.184-.302.417-.63.65-.936a21.915 21.915 0 0 1 .883-1.088l.014-.016.004-.004v-.001l-.375-.33zm-2.486 2.862c-.209.97-.146 1.043-.182 1.655l.998.059c.041-.695-.026-.634.161-1.504l-.977-.21zm-.182 1.654c-.023.388.037.813.095 1.121a7.557 7.557 0 0 0 .114.507l.008.033.003.01v.002l.001.001.481-.135.482-.136-.002-.006a3.626 3.626 0 0 1-.031-.12 6.653 6.653 0 0 1-.073-.34 3.873 3.873 0 0 1-.08-.877l-.998-.06zm.702 1.539l-.062-.496h-.003l-.01.001-.042.005-.156.017a14.52 14.52 0 0 1-.523.045c-.426.028-.894.038-1.197-.009l-.154.988c.423.066.99.047 1.417.019a15.708 15.708 0 0 0 .729-.066l.046-.006.013-.002h.005l-.063-.496zm-1.992-.437c-.035-.005-.126-.04-.271-.158a3.175 3.175 0 0 1-.426-.44 6.459 6.459 0 0 1-.618-.91l-.88.473c.117.219.39.662.725 1.07.167.205.36.413.567.582.199.162.455.325.748.371l.155-.988zm-1.315-1.508c-.231-.43-.632-.647-1.049-.632a1.187 1.187 0 0 0-.963.572l.856.518a.188.188 0 0 1 .144-.09.094.094 0 0 1 .053.012.226.226 0 0 1 .079.093l.88-.473zm-2.012-.06a7.843 7.843 0 0 1-.756 1.049c-.15.17-.292.31-.42.409a.99.99 0 0 1-.157.102.371.371 0 0 1-.063.024l.122.992c.275-.033.52-.18.708-.326.198-.152.39-.345.562-.543a8.81 8.81 0 0 0 .86-1.19l-.856-.516zm-1.396 1.584c-.523.064-1.354.077-2.306.07-.961-.006-1.96-.032-2.894-.041l-.01 1c.886.009 1.96.035 2.897.042.945.006 1.838-.005 2.435-.079l-.122-.992zm-5.204.529l.491.092v-.001a.338.338 0 0 1 .002-.007l.003-.018a3.615 3.615 0 0 0 .038-.278c.02-.178.04-.426.034-.695a3.383 3.383 0 0 0-.118-.868c-.084-.29-.235-.605-.514-.834l-.635.773c.067.055.136.16.189.34.051.177.074.39.078.607a4.477 4.477 0 0 1-.06.797l.492.092zm-.062-2.607a26.8 26.8 0 0 1-.933-.839c-.346-.32-.707-.657-.98-.89l-.65.759c.253.218.596.537.95.865.347.32.706.652.975.875l.638-.77zm-1.871-1.69l-1.396-1.507-.734.68 1.396 1.507.734-.68zm12.55-.587v-5.66h-1v5.66h1zm-3.38.017l-.027-5.683-1 .005.027 5.683 1-.005zm-4.349-5.626l.036 5.606 1-.006-.036-5.606-1 .006z" fill="#000"/><defs><linearGradient id="a" x1="12.737" x2="12.737" y1=".781" y2="25.765" gradientUnits="userSpaceOnUse"><stop stop-color="#fff" offset="0"/><stop stop-color="#fff" stop-opacity="0" offset="1"/></linearGradient></defs></svg>